<svg height="464pt" viewBox="-72 0 464 464.096" width="464pt" xmlns="http://www.w3.org/2000/svg"><path d="m24.046875 464.097656h48l224-200-16-8h-24l-8 8zm0 0" fill="#a88e74"/><path d="m296.046875 464.097656h-48l-224-200 16-8h16l16 8zm0 0" fill="#c1ac8e"/><path d="m24.046875 176.097656h32v72h-32zm0 0" fill="#c1ac8e"/><path d="m264.046875 176.097656h32v72h-32zm0 0" fill="#c1ac8e"/><path d="m264.046875 96.097656h32v72h-32zm0 0" fill="#a88e74"/><path d="m24.046875 96.097656h32v64h-32zm0 0" fill="#a88e74"/><g fill="#ea6b65"><path d="m296.046875 104h-32l-1.816406.28125c-67.722657 10.421875-136.640625 10.421875-204.367188 0l-1.816406-.28125h-32v-104h32l1.816406.28125c67.726563 10.421875 136.644531 10.421875 204.367188 0l1.816406-.28125h32zm0 0"/><path d="m24.046875 152.097656h32c8.835937 0 16 7.160156 16 16v16h-64v-16c0-8.839844 7.164063-16 16-16zm0 0"/><path d="m24.046875 232.097656h272v32h-272zm0 0"/><path d="m312.046875 184.097656h-64v-16c0-8.839844 7.164063-16 16-16h32c8.835937 0 16 7.160156 16 16zm0 0"/></g><path d="m48.046875 248.097656c0 13.253906-10.742187 24-24 24-13.253906 0-24-10.746094-24-24 0-13.257812 10.746094-24 24-24 13.257813 0 24 10.742188 24 24zm0 0" fill="#d9c2a0"/><path d="m320.046875 248.097656c0 13.253906-10.742187 24-24 24-13.253906 0-24-10.746094-24-24 0-13.257812 10.746094-24 24-24 13.257813 0 24 10.742188 24 24zm0 0" fill="#d9c2a0"/><path d="m64.046875 88.097656c-4.417969 0-8-3.582031-8-8v-40c0-4.421875 3.582031-8 8-8s8 3.578125 8 8v40c0 4.417969-3.582031 8-8 8zm0 0" fill="#e06661"/><path d="m264.046875 88.097656c-4.417969 0-8-3.582031-8-8v-40c0-4.421875 3.582031-8 8-8s8 3.578125 8 8v40c0 4.417969-3.582031 8-8 8zm0 0" fill="#e06661"/></svg>